HIERARCHY
ROOT Hips
{
    OFFSET   0.000000   0.000000   0.000000
    CHANNELS 6 Xposition Yposition Zposition Zrotation Xrotation Yrotation
    JOINT Chest
    {
        OFFSET   0.000000   8.007240   0.000000
        CHANNELS 3 Zrotation Xrotation Yrotation
        JOINT Chest2
        {
            OFFSET   0.000000  22.077100   0.000000
            CHANNELS 3 Zrotation Xrotation Yrotation
            JOINT Neck
            {
                OFFSET   0.000000  23.254800   0.000000
                CHANNELS 3 Zrotation Xrotation Yrotation
                JOINT Head
                {
                    OFFSET   0.000000  14.370000   1.956600
                    CHANNELS 3 Zrotation Xrotation Yrotation
                    End Site
                    {
                        OFFSET   0.000000  19.566000   0.000000
                    }
                }
            }
            JOINT LeftCollar
            {
                OFFSET   3.911900  19.017000  -0.467064
                CHANNELS 3 Zrotation Xrotation Yrotation
                JOINT LeftShoulder
                {
                    OFFSET  10.383700   0.000000   0.000000
                    CHANNELS 3 Zrotation Xrotation Yrotation
                    JOINT LeftElbow
                    {
                        OFFSET  26.662100   0.001476   0.000517
                        CHANNELS 3 Zrotation Xrotation Yrotation
                        JOINT LeftWrist
                        {
                            OFFSET  28.869000  -0.000025  -0.000106
                            CHANNELS 3 Zrotation Xrotation Yrotation
                            JOINT LeftFinger0
                            {
                                OFFSET   2.044660  -2.323460   3.252850
                                CHANNELS 3 Zrotation Xrotation Yrotation
                                JOINT LeftFinger01
                                {
                                    OFFSET   3.088130   0.000000   0.000000
                                    CHANNELS 3 Zrotation Xrotation Yrotation
                                    JOINT LeftFinger02
                                    {
                                        OFFSET   2.639460   0.000000   0.000000
                                        CHANNELS 3 Zrotation Xrotation Yrotation
                                        End Site
                                        {
                                            OFFSET   2.582190   0.000000   0.000000
                                        }
                                    }
                                }
                            }
                            JOINT LeftFinger1
                            {
                                OFFSET   8.364480   0.000000   3.252850
                                CHANNELS 3 Zrotation Xrotation Yrotation
                                JOINT LeftFinger11
                                {
                                    OFFSET   4.646930   0.000000   0.000000
                                    CHANNELS 3 Zrotation Xrotation Yrotation
                                    JOINT LeftFinger12
                                    {
                                        OFFSET   2.323460   0.000000   0.000000
                                        CHANNELS 3 Zrotation Xrotation Yrotation
                                        End Site
                                        {
                                            OFFSET   2.273050   0.000000   0.000000
                                        }
                                    }
                                }
                            }
                            JOINT LeftFinger2
                            {
                                OFFSET   8.364490   0.000015   1.078090
                                CHANNELS 3 Zrotation Xrotation Yrotation
                                JOINT LeftFinger21
                                {
                                    OFFSET   5.111620   0.000000   0.000000
                                    CHANNELS 3 Zrotation Xrotation Yrotation
                                    JOINT LeftFinger22
                                    {
                                        OFFSET   2.788160   0.000016   0.000000
                                        CHANNELS 3 Zrotation Xrotation Yrotation
                                        End Site
                                        {
                                            OFFSET   2.727660   0.000000   0.000000
                                        }
                                    }
                                }
                            }
                            JOINT LeftFinger3
                            {
                                OFFSET   7.899780   0.000017  -1.078090
                                CHANNELS 3 Zrotation Xrotation Yrotation
                                JOINT LeftFinger31
                                {
                                    OFFSET   4.646930   0.000000   0.000000
                                    CHANNELS 3 Zrotation Xrotation Yrotation
                                    JOINT LeftFinger32
                                    {
                                        OFFSET   2.323470   0.000000   0.000000
                                        CHANNELS 3 Zrotation Xrotation Yrotation
                                        End Site
                                        {
                                            OFFSET   2.273050   0.000000   0.000000
                                        }
                                    }
                                }
                            }
                            JOINT LeftFinger4
                            {
                                OFFSET   7.435090   0.000000  -3.252850
                                CHANNELS 3 Zrotation Xrotation Yrotation
                                JOINT LeftFinger41
                                {
                                    OFFSET   3.717550   0.000000   0.000000
                                    CHANNELS 3 Zrotation Xrotation Yrotation
                                    JOINT LeftFinger42
                                    {
                                        OFFSET   1.858770   0.000000   0.000000
                                        CHANNELS 3 Zrotation Xrotation Yrotation
                                        End Site
                                        {
                                            OFFSET   1.818440   0.000000   0.000000
                                        }
                                    }
                                }
                            }
                        }
                    }
                }
            }
            JOINT RightCollar
            {
                OFFSET  -3.911900  19.017000  -0.467063
                CHANNELS 3 Zrotation Xrotation Yrotation
                JOINT RightShoulder
                {
                    OFFSET -10.383700   0.000019   0.000000
                    CHANNELS 3 Zrotation Xrotation Yrotation
                    JOINT RightElbow
                    {
                        OFFSET -26.662100   0.001175   0.000102
                        CHANNELS 3 Zrotation Xrotation Yrotation
                        JOINT RightWrist
                        {
                            OFFSET -28.869000   0.000016  -0.000079
                            CHANNELS 3 Zrotation Xrotation Yrotation
                            JOINT RightFinger0
                            {
                                OFFSET  -2.044660  -2.323490   3.252850
                                CHANNELS 3 Zrotation Xrotation Yrotation
                                JOINT RightFinger01
                                {
                                    OFFSET  -3.088140   0.000000   0.000000
                                    CHANNELS 3 Zrotation Xrotation Yrotation
                                    JOINT RightFinger02
                                    {
                                        OFFSET  -2.639460   0.000000   0.000000
                                        CHANNELS 3 Zrotation Xrotation Yrotation
                                        End Site
                                        {
                                            OFFSET  -2.582190   0.000000   0.000000
                                        }
                                    }
                                }
                            }
                            JOINT RightFinger1
                            {
                                OFFSET  -8.364480   0.000000   3.252850
                                CHANNELS 3 Zrotation Xrotation Yrotation
                                JOINT RightFinger11
                                {
                                    OFFSET  -4.646930   0.000000   0.000000
                                    CHANNELS 3 Zrotation Xrotation Yrotation
                                    JOINT RightFinger12
                                    {
                                        OFFSET  -2.323470   0.000000   0.000000
                                        CHANNELS 3 Zrotation Xrotation Yrotation
                                        End Site
                                        {
                                            OFFSET  -2.273050   0.000000   0.000000
                                        }
                                    }
                                }
                            }
                            JOINT RightFinger2
                            {
                                OFFSET  -8.364480   0.000000   1.078090
                                CHANNELS 3 Zrotation Xrotation Yrotation
                                JOINT RightFinger21
                                {
                                    OFFSET  -5.111620   0.000000   0.000000
                                    CHANNELS 3 Zrotation Xrotation Yrotation
                                    JOINT RightFinger22
                                    {
                                        OFFSET  -2.788160   0.000000   0.000000
                                        CHANNELS 3 Zrotation Xrotation Yrotation
                                        End Site
                                        {
                                            OFFSET  -2.727660   0.000000   0.000000
                                        }
                                    }
                                }
                            }
                            JOINT RightFinger3
                            {
                                OFFSET  -7.899780   0.000000  -1.078090
                                CHANNELS 3 Zrotation Xrotation Yrotation
                                JOINT RightFinger31
                                {
                                    OFFSET  -4.646930   0.000000   0.000000
                                    CHANNELS 3 Zrotation Xrotation Yrotation
                                    JOINT RightFinger32
                                    {
                                        OFFSET  -2.323470   0.000000   0.000000
                                        CHANNELS 3 Zrotation Xrotation Yrotation
                                        End Site
                                        {
                                            OFFSET  -2.273050   0.000000   0.000000
                                        }
                                    }
                                }
                            }
                            JOINT RightFinger4
                            {
                                OFFSET  -7.435090   0.000000  -3.252850
                                CHANNELS 3 Zrotation Xrotation Yrotation
                                JOINT RightFinger41
                                {
                                    OFFSET  -3.717550   0.000000   0.000000
                                    CHANNELS 3 Zrotation Xrotation Yrotation
                                    JOINT RightFinger42
                                    {
                                        OFFSET  -1.858770   0.000000   0.000000
                                        CHANNELS 3 Zrotation Xrotation Yrotation
                                        End Site
                                        {
                                            OFFSET  -1.818440   0.000000   0.000000
                                        }
                                    }
                                }
                            }
                        }
                    }
                }
            }
        }
    }
    JOINT LeftHip
    {
        OFFSET   9.783040   0.000000   0.000000
        CHANNELS 3 Zrotation Xrotation Yrotation
        JOINT LeftKnee
        {
            OFFSET   0.000032 -41.789100  -0.002222
            CHANNELS 3 Zrotation Xrotation Yrotation
            JOINT LeftAnkle
            {
                OFFSET   0.000087 -41.133200  -0.000135
                CHANNELS 3 Zrotation Xrotation Yrotation
                JOINT LeftToe
                {
                    OFFSET   0.000000  -6.358960  14.674500
                    CHANNELS 3 Zrotation Xrotation Yrotation
                    End Site
                    {
                        OFFSET   0.000000   0.000000   3.913200
                    }
                }
            }
        }
    }
    JOINT RightHip
    {
        OFFSET  -9.783040   0.000000   0.000000
        CHANNELS 3 Zrotation Xrotation Yrotation
        JOINT RightKnee
        {
            OFFSET   0.000047 -41.789100  -0.000896
            CHANNELS 3 Zrotation Xrotation Yrotation
            JOINT RightAnkle
            {
                OFFSET  -0.000117 -41.133300  -0.000248
                CHANNELS 3 Zrotation Xrotation Yrotation
                JOINT RightToe
                {
                    OFFSET   0.000000  -6.358970  14.674500
                    CHANNELS 3 Zrotation Xrotation Yrotation
                    End Site
                    {
                        OFFSET   0.000000   0.000000   3.913200
                    }
                }
            }
        }
    }
}
MOTION
Frames: 5
Frame Time:   0.016667
  1.732950  89.639300   0.043744  -3.525650  -7.781460  -6.150450   2.892440  13.211500   0.785252   5.836700  26.445600   0.899942  -1.391130  -7.698240  -0.180821  -2.403190 -15.582600   2.827930  -0.419158  -5.687790  -3.720430 -41.496500 -11.903500 -79.306100   8.884420 -21.669500 -91.220200  12.230100  24.215200 -11.903300  54.053900  51.857500 -102.060000  -7.969770  -0.002590  -0.000256   1.015110  -0.000864  -0.003773 -50.657800  11.223300  -9.057770 -42.177500   0.000074   0.001802 -31.633100   0.000185   0.002593 -36.908900   2.494450  -3.315990 -54.101700   0.000447   0.001778 -36.304700  -0.000328   0.000846 -38.751700  -1.909070   2.376710 -54.250000   0.000903   0.000000 -36.902700  -0.000592   0.001657 -42.789000  -2.193280   2.366940 -64.249300  -0.002502  -0.000889 -42.790000  -0.002942   0.000489  -7.407690  -7.479260   9.002490  24.686600 -20.042900  74.492100 -25.114100 -23.346600  79.858800  -9.870640  12.998300  25.733600 -59.031000  54.333900 108.285000  -9.292090  -0.002000  -0.000160  -9.646040  -0.000869  -0.004187  42.909600  11.491600  12.097500  36.107400   0.002550   0.002884  26.101500   0.003979  -0.001127  33.752100   4.825690   7.182280  51.082200   0.001576  -0.003015  34.020800   0.005476   0.001297  33.410800   3.322080   5.021030  50.334700   0.000410  -0.003923  33.522900  -0.000534   0.002755  44.237100  -2.411090  -2.473320  66.433700  -0.003509  -0.001143  44.244900  -0.000968  -0.001905   2.556040  11.011600   4.699470   1.340520   0.531943   5.385240  -3.164690  -2.484840  14.691500   0.000000   0.000000   0.000000   0.567044   4.365330  -7.054780   1.619720   6.299300   1.032800  -5.021770  -1.390900   1.968590  -0.000000   0.000000   0.000000
  1.718060  89.638200   0.047103  -3.537060  -7.739530  -6.474770   2.932780  13.184000   0.666975   5.950680  26.384700   0.644543  -1.392310  -7.672680  -0.180817  -2.403240 -15.530900   2.714160  -0.400701  -5.585070  -3.749320 -41.483100 -11.884000 -79.405800   8.952600 -21.675900 -91.096600  12.218300  24.205800 -11.939900  53.903000  51.771800 -101.867000  -7.759040  -0.002621  -0.000389   1.120490  -0.000881  -0.003766 -50.622500  11.225600  -9.071050 -42.149800   0.000071   0.001886 -31.612300   0.000088   0.002644 -36.877100   2.573570  -3.421830 -54.099100   0.000469   0.001762 -36.295500  -0.000323   0.000841 -38.754900  -1.820620   2.264360 -54.248600   0.000898   0.000000 -36.901700  -0.000548   0.001642 -42.821300  -2.106250   2.270270 -64.293600  -0.002555  -0.000884 -42.819600  -0.002996   0.000500  -7.394160  -7.468000   8.983550  24.669400 -20.091000  74.412000 -25.032200 -23.327700  79.954800  -9.858640  12.942700  25.731200 -59.030900  54.333900 108.285000  -9.236140  -0.002021  -0.000293  -9.618070  -0.000837  -0.004292  42.894500  11.491400  12.103600  36.095600   0.002573   0.002935  26.090300   0.004028  -0.001164  33.744800   4.825890   7.184840  51.071500   0.001634  -0.003044  34.013700   0.005481   0.001304  33.403100   3.322450   5.023990  50.323300   0.000415  -0.003976  33.515300  -0.000517   0.002754  44.229100  -2.408450  -2.471200  66.421500  -0.003473  -0.001155  44.236700  -0.000992  -0.001945   2.531040  11.037500   4.725190   1.343640   0.519559   5.569760  -3.175670  -2.518650  14.804300  -0.000000   0.000000   0.000000   0.534944   4.300400  -7.019430   1.616310   6.313870   1.175580  -5.007990  -1.388090   2.122540  -0.000000   0.000000   0.000000
  1.702610  89.636900   0.049220  -3.550780  -7.691220  -6.808670   2.971890  13.155300   0.552841   6.060100  26.321300   0.398333  -1.392680  -7.644680  -0.180811  -2.401960 -15.474200   2.604690  -0.386869  -5.487180  -3.775820 -41.464900 -11.856000 -79.504000   9.031010 -21.682100 -90.959400  12.215500  24.194700 -11.998200  53.680000  51.643400 -101.583000  -7.548300  -0.002655  -0.000484   1.225860  -0.000897  -0.003758 -50.564700  11.227200  -9.092790 -42.104200   0.000064   0.001968 -31.578100   0.000000   0.002699 -36.815700   2.673400  -3.565820 -54.093700   0.000491   0.001747 -36.276800  -0.000316   0.000836 -38.744100  -1.714160   2.134990 -54.247600   0.000892   0.000000 -36.898100  -0.000497   0.001615 -42.855300  -1.993610   2.147440 -64.338000  -0.002607  -0.000878 -42.849100  -0.003048   0.000508  -7.382870  -7.454780   8.964480  24.675700 -20.131400  74.319500 -24.996300 -23.322400  80.064700  -9.855620  12.902800  25.730400 -59.030900  54.333900 108.285000  -9.185180  -0.002039  -0.000427  -9.592590  -0.000804  -0.004397  42.880900  11.491200  12.109200  36.084900   0.002596   0.002985  26.080200   0.004077  -0.001200  33.735900   4.826090   7.187910  51.058400   0.001694  -0.003072  34.004900   0.005488   0.001311  33.393300   3.322720   5.027770  50.308800   0.000420  -0.004027  33.505600  -0.000501   0.002753  44.221200  -2.405680  -2.470330  66.409600  -0.003436  -0.001168  44.228800  -0.001015  -0.001983   2.507060  11.059600   4.750180   1.349320   0.502867   5.750440  -3.188430  -2.548730  14.931600  -0.000000   0.000000   0.000000   0.504227   4.215180  -6.985460   1.614650   6.343080   1.326700  -4.999600  -1.383320   2.278540  -0.000000   0.000000  -0.000000
  1.686520  89.635200   0.050380  -3.570160  -7.634860  -7.153520   3.012860  13.124200   0.442822   6.171540  26.253100   0.160547  -1.393270  -7.615440  -0.180804  -2.401910 -15.415000   2.502640  -0.387709  -5.383950  -3.779500 -41.463100 -11.828700 -79.583900   9.092170 -21.679600 -90.852400  12.271200  24.208400 -12.050300  53.538400  51.560400 -101.403000  -7.555600  -0.002693  -0.000400   1.222210  -0.000923  -0.003751 -50.509500  11.227400  -9.113540 -42.060500   0.000029   0.002046 -31.545400  -0.000034   0.002775 -36.735100   2.697590  -3.612490 -54.085800   0.000506   0.001735 -36.248500  -0.000309   0.000825 -38.699300  -1.693190   2.115120 -54.246900   0.000883  -0.000000 -36.884500  -0.000449   0.001586 -42.849400  -1.963760   2.116900 -64.328300  -0.002656  -0.000868 -42.842700  -0.003099   0.000509  -7.374990  -7.437010   8.947980  24.674900 -20.186900  74.196600 -24.933200 -23.336300  80.200600  -9.877940  12.894300  25.746900 -59.030800  54.333900 108.285000  -9.130610  -0.002059  -0.000286  -9.565310  -0.000787  -0.004506  42.855700  11.490900  12.119500  36.065000   0.002626   0.003030  26.061400   0.004133  -0.001233  33.721700   4.826260   7.192750  51.037200   0.001755  -0.003101  33.990800   0.005497   0.001326  33.377200   3.322900   5.034250  50.284900   0.000417  -0.004062  33.489700  -0.000487   0.002751  44.206900  -2.400050  -2.470880  66.388200  -0.003396  -0.001173  44.214500  -0.001036  -0.002016   2.485810  11.066200   4.768380   1.362590   0.497669   5.931050  -3.207490  -2.574880  15.076000   0.000000   0.000000   0.000000   0.480270   4.120830  -6.959800   1.614310   6.376210   1.491210  -5.002500  -1.374070   2.438210   0.000000   0.000000  -0.000000
  1.667960  89.633300   0.051081  -3.592920  -7.576570  -7.510200   3.054240  13.093100   0.332987   6.285340  26.184900  -0.076786  -1.393870  -7.586420  -0.180796  -2.402470 -15.356200   2.417020  -0.391816  -5.280340  -3.780890 -41.475300 -11.812800 -79.647000   9.142110 -21.663600 -90.751200  12.350200  24.254200 -12.083300  53.469600  51.519800 -101.316000  -7.606690  -0.002731  -0.000315   1.196660  -0.000949  -0.003742 -50.476800  11.227600  -9.125800 -42.034700   0.000000   0.002123 -31.526000  -0.000064   0.002849 -36.672700   2.701040  -3.621040 -54.079900   0.000520   0.001721 -36.228800  -0.000300   0.000812 -38.650400  -1.690190   2.112280 -54.246400   0.000874   0.000000 -36.868200  -0.000399   0.001554 -42.830700  -1.959490   2.112540 -64.300500  -0.002706  -0.000858 -42.824200  -0.003150   0.000510  -7.366850  -7.421370   8.931720  24.670900 -20.235100  74.106900 -24.865300 -23.340800  80.301300  -9.916220  12.884300  25.777800 -59.030800  54.333900 108.285000  -9.065380  -0.002078  -0.000145  -9.532700  -0.000772  -0.004616  42.829700  11.490500  12.130000  36.044600   0.002659   0.003074  26.042100   0.004190  -0.001265  33.712300   4.826450   7.195890  51.023400   0.001819  -0.003130  33.981500   0.005506   0.001343  33.366700   3.323020   5.038550  50.269100   0.000414  -0.004096  33.479200  -0.000474   0.002750  44.197600  -2.396280  -2.471860  66.374200  -0.003357  -0.001177  44.205200  -0.001058  -0.002051   2.468720  11.068700   4.785360   1.376510   0.496770   6.122160  -3.232230  -2.603470  15.221200  -0.000000   0.000000  -0.000000   0.462386   4.019850  -6.935560   1.611630   6.415310   1.671110  -5.011900  -1.363730   2.593750  -0.000000   0.000000  -0.000000
